<?xml version="1.0" encoding="UTF-8"?>
<svg version="1.1" xmlns="http://www.w3.org/2000/svg" width="1184" height="864">
<path d="M0 0 C390.72 0 781.44 0 1184 0 C1184 285.12 1184 570.24 1184 864 C793.28 864 402.56 864 0 864 C0 578.88 0 293.76 0 0 Z " fill="#DCE3FB" transform="translate(0,0)"/>
<path d="M0 0 C0.71193475 -0.00205263 1.42386949 -0.00410527 2.15737802 -0.0062201 C4.55518274 -0.01189756 6.95293016 -0.01043194 9.35074043 -0.00901413 C11.08233332 -0.01159733 12.81392562 -0.01461036 14.54551709 -0.01801753 C19.31355999 -0.02609592 24.08158785 -0.02787757 28.84963679 -0.028615 C33.98811101 -0.03046406 39.12657738 -0.03801058 44.26504707 -0.04475021 C55.50452298 -0.05833929 66.74399532 -0.06435895 77.98347807 -0.06876087 C84.99818402 -0.07152192 92.01288859 -0.07575898 99.02759361 -0.08026505 C118.44056995 -0.09245769 137.85354518 -0.10275752 157.26652527 -0.10614014 C159.13064557 -0.10646949 159.13064557 -0.10646949 161.03242487 -0.10680549 C162.27817787 -0.10702377 163.52393087 -0.10724204 164.80743396 -0.10746694 C167.33188939 -0.10791041 169.85634482 -0.10835697 172.38080025 -0.10880661 C173.63302258 -0.10902804 174.88524492 -0.10924947 176.17541339 -0.10947761 C196.47601533 -0.11342751 216.77658143 -0.13088741 237.07716952 -0.15416613 C257.90797515 -0.17786056 278.73876278 -0.19034109 299.5695821 -0.19150805 C311.27002993 -0.19242581 322.97043103 -0.19820346 334.67086601 -0.21632767 C344.63180445 -0.2317028 354.5926817 -0.23686439 364.55362974 -0.22858956 C369.63786595 -0.22467408 374.72197887 -0.2256564 379.80620003 -0.23964691 C384.45838995 -0.25233182 389.11036324 -0.25123615 393.76255263 -0.2390562 C395.44759129 -0.2370898 397.13264501 -0.24022086 398.81766246 -0.24890056 C401.10499405 -0.25993905 403.39155379 -0.25254368 405.67886353 -0.24050903 C407.58598407 -0.24140467 407.58598407 -0.24140467 409.5316323 -0.24231839 C414.58942722 0.3082143 417.83381857 1.90823389 421.2777729 5.63142776 C423.59247917 9.06062223 424.09063334 11.61584513 424.1039381 15.65479183 C424.10941255 16.5873482 424.11488699 17.51990457 424.12052733 18.48072022 C424.12199449 20.02010081 424.12199449 20.02010081 424.12349129 21.59057999 C424.12842926 22.67936819 424.13336724 23.76815639 424.13845485 24.88993818 C424.15387441 28.55661476 424.16220255 32.22327377 424.17059517 35.88997269 C424.18017019 38.51107311 424.19018004 41.13217197 424.20059395 43.7532692 C424.22236277 49.40574981 424.24050578 55.05823279 424.25619888 60.71073341 C424.27889381 68.8833393 424.30703716 77.05591925 424.33651816 85.22850315 C424.38419869 98.487393 424.42746163 111.74629346 424.46795845 125.00520706 C424.50731103 137.88640035 424.54873668 150.76758422 424.59295845 163.64876175 C424.59568272 164.4425144 424.59840699 165.23626706 424.60121382 166.05407282 C424.61489326 170.03602399 424.62861354 174.01797501 424.64235413 177.99992597 C424.75632616 211.04374047 424.86313391 244.08757454 424.9652729 277.13142776 C425.51929787 277.39992035 426.07332283 277.66841293 426.64413643 277.94504166 C427.36837807 278.30053589 428.09261971 278.65603012 428.83880806 279.02229691 C429.55783302 279.37328949 430.27685799 279.72428207 431.01767159 280.0859108 C433.26411531 281.29185321 434.75009716 282.57891015 436.3402729 284.56892776 C436.80175728 285.1245137 437.26324165 285.68009964 437.7387104 286.25252151 C441.96477322 292.72620372 441.7406099 299.64738541 440.9652729 307.13142776 C438.80811615 314.64635988 434.61819321 319.21638917 427.9652729 323.13142776 C426.63986888 323.81372271 425.30862338 324.48518344 423.9652729 325.13142776 C424.8933979 325.37892776 425.8215229 325.62642776 426.7777729 325.88142776 C430.29765739 327.26177462 431.12398712 327.92235865 432.9652729 331.13142776 C433.62419325 335.75268134 433.4746698 340.40571938 433.4652729 345.06892776 C433.49363228 346.34445511 433.52199165 347.61998245 433.5512104 348.93416214 C433.57025891 358.01553566 433.57025891 358.01553566 431.15667915 362.46736526 C426.28887133 365.00553679 421.81480811 364.89629061 416.4027729 364.81892776 C414.84139595 364.86050003 414.84139595 364.86050003 413.24847603 364.90291214 C405.88690279 364.87924149 405.88690279 364.87924149 402.2933979 361.96345901 C399.69439256 356.55935626 400.26879365 349.97393124 400.2777729 344.13142776 C400.23716743 342.87330276 400.19656197 341.61517776 400.15472603 340.31892776 C400.12126008 331.29268273 400.12126008 331.29268273 402.5722065 327.92049026 C404.30475591 326.431328 405.96187032 325.22189151 407.9652729 324.13142776 C407.40235542 323.80932327 406.83943794 323.48721878 406.25946236 323.15535355 C400.59764207 319.87279518 396.98370841 316.59160292 393.6527729 310.88142776 C392.9652729 308.13142776 392.9652729 308.13142776 392.9652729 298.13142776 C277.1352729 298.13142776 161.3052729 298.13142776 41.9652729 298.13142776 C43.9652729 293.13142776 43.9652729 293.13142776 44.93011665 290.87752151 C50.35951218 277.99088395 53.94787972 263.90050142 49.2777729 250.19392776 C45.08189469 240.30573925 39.99326951 233.02797094 29.8402729 228.81892776 C14.77942297 223.11697659 -0.09663306 226.78325092 -14.77764702 231.70442581 C-15.57788795 231.97232422 -16.37812889 232.24022263 -17.20261955 232.51623917 C-17.80721504 232.7192514 -18.41181053 232.92226364 -19.0347271 233.13142776 C-19.12812544 204.15949516 -19.19868431 175.18758508 -19.24197578 146.2155323 C-19.24605523 143.53873431 -19.25022051 140.86193646 -19.25445366 138.1851387 C-19.2555029 137.51980547 -19.25655214 136.85447224 -19.25763318 136.16897739 C-19.27503759 125.3965191 -19.30657544 114.6241462 -19.34333828 103.85173856 C-19.38074678 92.79793258 -19.40266334 81.74417375 -19.41108108 70.69030774 C-19.41630042 64.48161956 -19.42858621 58.27312507 -19.45764732 52.0644989 C-19.48477284 46.22212561 -19.49317777 40.38002603 -19.48715782 34.53759575 C-19.48825933 32.39217454 -19.49623005 30.24674429 -19.511549 28.10137749 C-19.53143172 25.17354687 -19.5266722 22.2467515 -19.51574516 19.31889725 C-19.52739653 18.46869283 -19.53904789 17.6184884 -19.55105233 16.74252021 C-19.49703754 11.39310047 -18.55355908 8.39625469 -15.0347271 4.13142776 C-10.40391737 -0.06524355 -6.08694512 0.00596918 0 0 Z " fill="#FCFCFD" transform="translate(593.0347270965576,198.86857223510742)"/>
<path d="M0 0 C6.59293324 5.43990904 10.34371845 12.07670199 12.4921875 20.3125 C14.27471405 42.59408189 6.50119564 60.80807509 -7.796875 77.71875 C-16.46427619 87.29416465 -26.49171122 94.4405584 -37.2578125 101.4375 C-38.14339844 102.01371094 -39.02898437 102.58992187 -39.94140625 103.18359375 C-56.36978911 113.40631428 -80.3999274 126.4375 -100.2578125 126.4375 C-101.26427976 123.00185978 -102.261867 119.56370371 -103.2578125 116.125 C-103.54398438 115.14853516 -103.83015625 114.17207031 -104.125 113.16601562 C-104.39570312 112.22822266 -104.66640625 111.29042969 -104.9453125 110.32421875 C-105.19667969 109.46014404 -105.44804688 108.59606934 -105.70703125 107.70581055 C-106.2578125 105.4375 -106.2578125 105.4375 -106.2578125 102.4375 C-107.2478125 102.4375 -108.2378125 102.4375 -109.2578125 102.4375 C-109.03641602 103.11514404 -108.81501953 103.79278809 -108.58691406 104.4909668 C-90.97881149 158.82231555 -90.16691997 223.10309136 -115.1328125 275.75 C-117.95357695 281.16845824 -121.23002275 285.85385816 -125.2578125 290.4375 C-125.87527344 291.1490625 -126.49273437 291.860625 -127.12890625 292.59375 C-134.44719637 300.48631239 -143.51646427 304.76658315 -154.1875 305.69140625 C-168.30298434 306.21608253 -180.6156123 301.38777191 -191.3203125 292.375 C-206.29757664 278.32800071 -212.80750482 257.38620054 -215.2578125 237.4375 C-214.70319336 237.32680176 -214.14857422 237.21610352 -213.57714844 237.10205078 C-211.05281184 236.5947552 -208.53033836 236.07872082 -206.0078125 235.5625 C-205.13511719 235.38847656 -204.26242187 235.21445312 -203.36328125 235.03515625 C-202.51894531 234.86113281 -201.67460937 234.68710937 -200.8046875 234.5078125 C-200.02963867 234.35070801 -199.25458984 234.19360352 -198.45605469 234.03173828 C-196.21756313 233.507301 -196.21756313 233.507301 -194.16113281 232.37060547 C-192.2578125 231.4375 -192.2578125 231.4375 -189.2578125 231.4375 C-189.2578125 230.7775 -189.2578125 230.1175 -189.2578125 229.4375 C-187.7578125 227.8125 -187.7578125 227.8125 -186.2578125 226.4375 C-187.81242187 227.17806641 -187.81242187 227.17806641 -189.3984375 227.93359375 C-190.7681396 228.58091872 -192.13793625 229.22804366 -193.5078125 229.875 C-194.18972656 230.20048828 -194.87164062 230.52597656 -195.57421875 230.86132812 C-196.23808594 231.17392578 -196.90195312 231.48652344 -197.5859375 231.80859375 C-198.1934082 232.09661865 -198.80087891 232.38464355 -199.42675781 232.68139648 C-210.37800635 237.20353205 -227.19496707 235.99914006 -238.00390625 231.59375 C-240.95513394 230.07977531 -243.58828633 228.40451928 -246.2578125 226.4375 C-246.9178125 226.4375 -247.5778125 226.4375 -248.2578125 226.4375 C-248.5878125 227.0975 -248.9178125 227.7575 -249.2578125 228.4375 C-248.52433594 228.72753906 -247.79085937 229.01757812 -247.03515625 229.31640625 C-245.3716867 229.98787708 -243.71505639 230.67732247 -242.07421875 231.40234375 C-235.00451586 234.45322074 -227.80357224 236.00228345 -220.2578125 237.4375 C-220.65037955 245.0824682 -221.96908056 251.7885586 -224.5078125 259 C-224.82500244 259.91821533 -225.14219238 260.83643066 -225.46899414 261.7824707 C-230.83107151 277.01913044 -239.41735017 292.30796773 -254.3515625 300.0390625 C-257.29579975 301.28526193 -260.23158019 302.40808491 -263.2578125 303.4375 C-264.22074219 303.80230469 -265.18367187 304.16710937 -266.17578125 304.54296875 C-276.36984632 307.50170246 -287.71582403 305.7390081 -297.2578125 301.4375 C-309.64809893 293.97688546 -318.33048557 281.22650814 -323.2578125 267.875 C-323.59393555 266.97080322 -323.93005859 266.06660645 -324.27636719 265.13500977 C-342.5190072 214.50865196 -344.05493547 156.27344283 -326.2578125 105.4375 C-327.2478125 105.4375 -328.2378125 105.4375 -329.2578125 105.4375 C-329.52335937 106.52289062 -329.78890625 107.60828125 -330.0625 108.7265625 C-330.41914332 110.17190647 -330.7759213 111.61721722 -331.1328125 113.0625 C-331.30683594 113.77535156 -331.48085938 114.48820313 -331.66015625 115.22265625 C-332.43706201 118.35905356 -333.24107086 121.39057454 -334.328125 124.4375 C-335.09401291 126.90893663 -335.48727818 128.91957246 -335.7578125 131.4609375 C-336.98582262 142.78391315 -336.98582262 142.78391315 -340.2890625 147.078125 C-342.84371162 149.13154549 -345.42149974 150.7975091 -348.2578125 152.4375 C-349.11890625 153.01242187 -349.98 153.58734375 -350.8671875 154.1796875 C-353.62100205 156.01284807 -356.42347023 157.73168034 -359.2578125 159.4375 C-360.35222656 160.11039063 -361.44664062 160.78328125 -362.57421875 161.4765625 C-377.12742899 170.24743385 -392.66187851 175.84069266 -409.8828125 172.8125 C-420.43429703 170.04583588 -427.8439331 162.90183683 -433.85546875 154.09765625 C-438.47386704 145.33685057 -438.59228328 134.63377243 -436.53515625 125.08203125 C-435.5870346 122.11483272 -434.50133727 119.29269832 -433.2578125 116.4375 C-432.9071875 115.59960938 -432.5565625 114.76171875 -432.1953125 113.8984375 C-424.22127513 96.45523075 -409.63693267 83.12452636 -394.6328125 71.75 C-393.90835938 71.19505859 -393.18390625 70.64011719 -392.4375 70.06835938 C-381.10757283 61.4375 -381.10757283 61.4375 -378.2578125 61.4375 C-378.2578125 60.7775 -378.2578125 60.1175 -378.2578125 59.4375 C-377.44957031 59.03917969 -376.64132812 58.64085937 -375.80859375 58.23046875 C-374.73996094 57.70066406 -373.67132813 57.17085938 -372.5703125 56.625 C-370.98669922 55.84189453 -370.98669922 55.84189453 -369.37109375 55.04296875 C-366.34696018 53.53591275 -366.34696018 53.53591275 -363.92578125 51.98828125 C-360.17416837 49.80762193 -356.24371326 48.14292987 -352.2578125 46.4375 C-351.42701172 46.07962402 -350.59621094 45.72174805 -349.74023438 45.35302734 C-347.17037164 44.25774832 -344.59079572 43.18892457 -342.0078125 42.125 C-341.13640625 41.75310547 -340.265 41.38121094 -339.3671875 40.99804688 C-338.09875 40.47887695 -338.09875 40.47887695 -336.8046875 39.94921875 C-336.05026367 39.63428467 -335.29583984 39.31935059 -334.51855469 38.99487305 C-331.74423729 38.31088097 -329.97541824 38.60884367 -327.2578125 39.4375 C-325.40625 41.30078125 -325.40625 41.30078125 -323.6328125 43.75 C-305.90066469 67.01722946 -283.101153 83.24944657 -255.0078125 91.8125 C-254.22913818 92.0511377 -253.45046387 92.28977539 -252.64819336 92.53564453 C-240.99416532 95.89381117 -229.46947309 96.77620802 -217.3828125 96.6875 C-216.0630542 96.68145752 -214.7432959 96.67541504 -213.38354492 96.66918945 C-179.71739348 96.32584839 -150.63384513 83.54073346 -126.2578125 60.4375 C-125.4225 59.65503906 -124.5871875 58.87257813 -123.7265625 58.06640625 C-116.43691651 51.0354977 -109.9900143 43.4270539 -105.046875 34.55078125 C-104.67377197 33.88844482 -104.30066895 33.2261084 -103.91625977 32.54370117 C-103.21271813 31.27187217 -102.53130349 29.9874043 -101.87866211 28.6887207 C-98.68671632 22.87754103 -93.99839881 20.46597207 -88.2578125 17.4375 C-87.17927002 16.8511377 -86.10072754 16.26477539 -84.98950195 15.66064453 C-24.36993012 -16.98816705 -24.36993012 -16.98816705 0 0 Z " fill="#FDFDFD" transform="translate(629.2578125,433.5625)"/>
<path d="M0 0 C2.12786276 1.23102994 3.87362045 2.56985169 5.71484375 4.19921875 C6.39289063 4.79605469 7.0709375 5.39289063 7.76953125 6.0078125 C26.10916536 24.31284352 26.95594295 59.95415497 27.15234375 84.01171875 C27.07848047 108.47123536 24.17741202 133.36509736 18.71484375 157.19921875 C18.41006104 158.56385254 18.41006104 158.56385254 18.09912109 159.95605469 C12.86386141 183.11005605 5.40122071 205.53023923 -4.28515625 227.19921875 C-8.06672424 225.69672075 -9.84880864 223.53144198 -12.28515625 220.32421875 C-14.27700395 217.7176993 -16.18544999 215.2965016 -18.53515625 213.00390625 C-20.28515625 211.19921875 -20.28515625 211.19921875 -20.28515625 209.19921875 C-20.85492188 208.95300781 -21.4246875 208.70679688 -22.01171875 208.453125 C-24.66019848 206.99236556 -26.48662901 205.23977326 -28.66015625 203.13671875 C-45.0887372 188.17112092 -65.064014 180.62403144 -86.28515625 175.19921875 C-86.28515625 173.87921875 -86.28515625 172.55921875 -86.28515625 171.19921875 C-81.31454608 170.87140244 -77.54500038 171.96736439 -73.03515625 173.88671875 C-72.37837891 174.15564941 -71.72160156 174.42458008 -71.04492188 174.70166016 C-67.18063796 176.30925525 -63.4774892 178.09780127 -59.78515625 180.07421875 C-55.6751216 182.22545762 -52.8819292 182.69886798 -48.28515625 182.19921875 C-48.28515625 179.22921875 -48.28515625 176.25921875 -48.28515625 173.19921875 C-59.6533185 166.8005046 -70.71546681 161.77628459 -83.28515625 158.19921875 C-83.83345596 147.98667035 -82.1860931 138.53368103 -80.22265625 128.57421875 C-80.06587402 127.76307617 -79.9090918 126.95193359 -79.74755859 126.11621094 C-76.93707209 111.61102526 -73.57510681 97.34667209 -69.28515625 83.19921875 C-68.86000732 81.79349609 -68.86000732 81.79349609 -68.42626953 80.359375 C-64.5916856 67.882212 -59.87354476 55.98903043 -54.28515625 44.19921875 C-53.77082031 43.08933594 -53.25648438 41.97945312 -52.7265625 40.8359375 C-46.96270584 28.79275733 -39.50965953 18.75141309 -30.28515625 9.19921875 C-29.79660156 8.66683594 -29.30804688 8.13445312 -28.8046875 7.5859375 C-26.79771476 5.7543814 -24.62114378 4.45773518 -22.28515625 3.07421875 C-21.41890625 2.55601563 -20.55265625 2.0378125 -19.66015625 1.50390625 C-13.81334593 -1.70799284 -6.32179986 -2.21533157 0 0 Z " fill="#FCFCFD" transform="translate(525.28515625,97.80078125)"/>
<path d="M0 0 C7.25424717 4.06466837 13.05067936 9.24099261 18.8125 15.1875 C19.68777344 16.07695312 20.56304687 16.96640625 21.46484375 17.8828125 C49.24720183 47.24906465 69.40346664 93.07443035 77.8125 132.1875 C74.23582174 134.25201302 70.48458033 135.04030023 66.5 135.9375 C35.52220109 143.38870642 9.64446477 161.98457709 -6.98046875 189.11328125 C-7.37878906 189.79777344 -7.77710938 190.48226562 -8.1875 191.1875 C-16.81523734 186.87363133 -21.95205447 163.3923737 -24.87207031 154.63476562 C-31.6748164 133.46674014 -36.84590497 112.16684128 -40.1875 90.1875 C-40.30609375 89.46594727 -40.4246875 88.74439453 -40.546875 88.00097656 C-42.34329076 76.91773293 -42.41825983 65.76443226 -42.5 54.5625 C-42.50962769 53.82350464 -42.51925537 53.08450928 -42.5291748 52.32312012 C-42.72414745 34.84833335 -40.27510274 18.38139707 -31.1875 3.1875 C-30.5275 3.1875 -29.8675 3.1875 -29.1875 3.1875 C-29.1875 2.5275 -29.1875 1.8675 -29.1875 1.1875 C-20.55630803 -5.54904008 -9.47744054 -4.37097036 0 0 Z " fill="#FCFCFC" transform="translate(305.1875,121.8125)"/>
<path d="M0 0 C11.34297126 11.05604956 17.24657279 24.91057121 17.62890625 40.5703125 C17.37966352 56.14798319 11.91398899 68.89660781 1.31640625 80.2578125 C-9.72012532 90.71739217 -22.66043998 96.66391495 -37.87109375 96.6328125 C-38.69971924 96.63120117 -39.52834473 96.62958984 -40.38208008 96.62792969 C-47.64507004 96.48440068 -53.95375088 95.03689869 -60.68359375 92.2578125 C-61.40417969 91.98066406 -62.12476563 91.70351563 -62.8671875 91.41796875 C-76.02707723 85.6721014 -85.33103248 74.25960139 -90.68359375 61.2578125 C-95.75632922 47.19618977 -95.26305866 31.25475886 -89.53515625 17.5 C-83.28363845 4.81628469 -72.62815123 -5.94602153 -59.34765625 -11.015625 C-38.0541721 -17.88606268 -17.30641701 -14.61183844 0 0 Z " fill="#FCFCFC" transform="translate(206.68359375,202.7421875)"/>
<path d="M0 0 C0.65397539 -0.00436032 1.30795078 -0.00872064 1.9817436 -0.0132131 C4.18857779 -0.02422282 6.39479413 -0.01372133 8.60162449 -0.00342751 C10.1935391 -0.00688183 11.78545131 -0.01164488 13.3773585 -0.01760924 C17.7639301 -0.03018004 22.15030694 -0.02392136 26.53687942 -0.01465058 C31.26293242 -0.00788515 35.98895104 -0.01832887 40.71499729 -0.02659035 C49.97838154 -0.03995705 59.24169302 -0.0370368 68.50508016 -0.02835242 C76.03167853 -0.02158741 83.55825645 -0.02065403 91.08485699 -0.02392387 C92.15458506 -0.02438357 93.22431314 -0.02484327 94.32645722 -0.0253169 C96.4993517 -0.02627604 98.67224618 -0.02724868 100.84514064 -0.02823468 C121.2391432 -0.03679728 141.63310536 -0.02694101 162.02710129 -0.01083358 C179.53801098 0.00256847 197.04886101 0.00024412 214.55976963 -0.01358986 C234.8774101 -0.02963362 255.19501512 -0.0359712 275.51266104 -0.02675307 C277.67803291 -0.02579739 279.84340478 -0.02485428 282.00877666 -0.02392387 C283.07427542 -0.02346105 284.13977417 -0.02299822 285.23756076 -0.02252137 C292.75734049 -0.01992772 300.27709779 -0.02431058 307.79687405 -0.03136253 C316.95787744 -0.03976446 326.11880368 -0.03752507 335.2797982 -0.0215203 C339.95669819 -0.01361964 344.63346942 -0.01057643 349.31036854 -0.02046776 C353.58810952 -0.02937825 357.86560187 -0.02454234 362.14332015 -0.0085351 C363.69443289 -0.00517175 365.24556644 -0.00691605 366.7966659 -0.01416247 C368.89861567 -0.02323237 370.99970413 -0.01398318 373.10160828 0 C374.27103956 0.00048706 375.44047084 0.00097411 376.64533943 0.00147593 C379.91528146 0.4157259 381.30553436 1.05810139 383.61372471 3.37752342 C384.18013096 5.93611717 384.18013096 5.93611717 384.17622471 8.81502342 C384.19813877 9.76248436 384.22005283 10.7099453 384.24263096 11.68611717 C383.3677573 15.43014171 381.80314364 16.30957634 378.61372471 18.37752342 C375.53396499 18.87776941 375.53396499 18.87776941 372.00979519 18.87809467 C371.0299863 18.88636592 371.0299863 18.88636592 370.03038329 18.89480427 C367.83804327 18.90841729 365.6468336 18.89349403 363.4545145 18.87872887 C361.86840889 18.8826211 360.28230676 18.88826093 358.69621289 18.89549977 C354.33497333 18.91028331 349.97409376 18.90005612 345.61286569 18.88576305 C340.91072085 18.87467376 336.20862736 18.886589 331.50648594 18.89560509 C322.29448756 18.90955286 313.08262606 18.90197034 303.87063418 18.8869295 C293.14985453 18.87008973 282.42910918 18.87327703 271.70832039 18.87702359 C252.58512667 18.88290483 233.46199875 18.86871943 214.33882236 18.84407616 C195.76848478 18.82014789 177.1982351 18.81307417 158.62788486 18.82356834 C138.41900728 18.83496795 118.21017038 18.83692 98.0012933 18.82247025 C95.84804702 18.82094436 93.69480074 18.819424 91.54155445 18.81790924 C89.95227255 18.81677252 89.95227255 18.81677252 88.33088394 18.81561283 C80.85169081 18.81086312 73.3725158 18.81272626 65.89332294 18.81697464 C56.78466886 18.82189236 47.67609801 18.81595682 38.56746303 18.79608034 C33.91700467 18.78618353 29.26667328 18.7811289 24.61620808 18.78897285 C20.36388181 18.79599875 16.11181245 18.78929811 11.85952021 18.77136923 C10.31656276 18.76730459 8.77358211 18.76835807 7.23063312 18.77488809 C5.14210068 18.78297448 3.05444736 18.77280577 0.96597195 18.75784016 C-0.19667938 18.75681103 -1.35933071 18.7557819 -2.5572139 18.75472158 C-5.38627529 18.37752342 -5.38627529 18.37752342 -7.24032199 16.95922238 C-10.1381408 12.95951577 -9.68660764 8.10775789 -9.38627529 3.37752342 C-6.98181427 -0.3320551 -4.16660608 0.00173559 0 0 Z " fill="#A1A3F2" transform="translate(605.3862752914429,220.6224765777588)"/>
<path d="M0 0 C2.77945189 2.23028599 4.66495793 4.86817629 6.63671875 7.80957031 C12.66671177 16.55360738 24.30837601 20.56630901 34.3515625 22.68066406 C35.4859375 22.76316406 36.6203125 22.84566406 37.7890625 22.93066406 C38.500625 22.99382813 39.2121875 23.05699219 39.9453125 23.12207031 C50.46042521 23.65123995 60.63781786 20.53055246 69.01953125 14.20019531 C70.7890625 12.93066406 70.7890625 12.93066406 73.7890625 11.93066406 C73.7890625 11.27066406 73.7890625 10.61066406 73.7890625 9.93066406 C74.4490625 9.93066406 75.1090625 9.93066406 75.7890625 9.93066406 C76.0984375 9.29128906 76.4078125 8.65191406 76.7265625 7.99316406 C77.7890625 5.93066406 77.7890625 5.93066406 78.7890625 4.93066406 C90.91636428 4.79591626 105.98957917 8.73523924 115.7890625 15.93066406 C117.4140625 19.49316406 117.4140625 19.49316406 116.7890625 22.93066406 C104.80003068 37.74064454 72.59424683 38.47526773 55.20703125 40.30957031 C53.06811495 40.52076104 50.92878421 40.72779591 48.7890625 40.93066406 C47.22986084 41.07930908 47.22986084 41.07930908 45.63916016 41.23095703 C-108.05743144 55.25065843 -108.05743144 55.25065843 -148.2109375 24.93066406 C-150.2109375 22.93066406 -150.2109375 22.93066406 -150.7109375 20.61816406 C-150.08702591 17.26463927 -148.58742124 16.18851169 -145.98046875 14.11889648 C-137.91299245 8.70162177 -124.97839573 5.83764054 -115.3359375 5.99316406 C-112.2109375 6.93066406 -112.2109375 6.93066406 -110.41015625 9.22753906 C-107.87017186 12.34950921 -105.3311271 14.03273454 -101.8984375 16.11816406 C-100.80917969 16.79234375 -99.71992188 17.46652344 -98.59765625 18.16113281 C-87.33284735 24.04689802 -72.62349412 23.46907756 -60.5234375 20.30566406 C-54.713639 18.37361591 -49.99195841 15.72387074 -45.2109375 11.93066406 C-44.64890625 11.51816406 -44.086875 11.10566406 -43.5078125 10.68066406 C-40.02719715 8.00867652 -37.74857593 5.07716647 -35.484375 1.38378906 C-29.98104568 -4.89608366 -6.76904525 -3.27389777 0 0 Z " fill="#D3DCF3" transform="translate(429.2109375,718.0693359375)"/>
<path d="M0 0 C2.39572396 0.00854569 4.7890767 -0.0204823 7.18457031 -0.05200195 C21.41721129 -0.11454725 35.05700349 2.37599177 48.39550781 7.44604492 C49.93271484 7.98358398 49.93271484 7.98358398 51.50097656 8.53198242 C65.81399169 13.70377385 65.81399169 13.70377385 70.39550781 18.44604492 C71.1611052 22.21023206 71.12914696 24.06507712 69.33300781 27.44604492 C66.21498344 29.05534783 63.7750383 28.1260724 60.39550781 27.44604492 C57.83892655 26.38871015 55.42001144 25.30843823 52.95800781 24.07104492 C44.868949 20.08145687 37.35388723 17.16633057 28.39550781 15.82104492 C27.64011719 15.69987305 26.88472656 15.57870117 26.10644531 15.45385742 C23.87168759 15.10059675 21.63470502 14.76984793 19.39550781 14.44604492 C18.13222656 14.25913086 16.86894531 14.0722168 15.56738281 13.87963867 C-15.1102935 10.20013455 -48.22358393 17.41458861 -73.01855469 36.35620117 C-90.06356577 50.13124789 -102.44940404 66.54690111 -106.60449219 88.44604492 C-106.99767265 92.16092236 -107.32775707 95.76456149 -106.60449219 99.44604492 C-106.107901 99.84766342 -105.61130981 100.24928192 -105.09967041 100.66307068 C-102.82000745 103.38152944 -103.23768139 105.68103805 -103.24804688 109.18066406 C-103.24498032 110.20062721 -103.24498032 110.20062721 -103.24185181 111.24119568 C-103.23884436 113.488138 -103.25731775 115.73434612 -103.27636719 117.98120117 C-103.27942481 119.54153766 -103.28130091 121.10187688 -103.28204346 122.66221619 C-103.28664615 125.93149264 -103.30107147 129.20052273 -103.32324219 132.46972656 C-103.35154794 136.6653931 -103.36245608 140.86086574 -103.36692429 145.05661869 C-103.37107603 148.27788746 -103.38089108 151.49911683 -103.39279938 154.72036552 C-103.39850574 156.26776247 -103.40326324 157.8151632 -103.40706635 159.36256599 C-103.41392258 161.52205217 -103.42755131 163.68138345 -103.44335938 165.84082031 C-103.45018738 167.07087296 -103.45701538 168.3009256 -103.46405029 169.56825256 C-103.60449219 172.44604492 -103.60449219 172.44604492 -104.60449219 174.44604492 C-96.28470044 188.3123645 -81.38113919 197.23485067 -65.85742188 201.13647461 C-63.05102907 201.71382891 -60.24230052 202.22028562 -57.41699219 202.69604492 C-55.99870117 202.95514648 -55.99870117 202.95514648 -54.55175781 203.21948242 C-47.1085625 204.60178107 -47.1085625 204.60178107 -39.60449219 204.44604492 C-38.63511719 203.63393555 -37.66574219 202.82182617 -36.66699219 201.98510742 C-32.94775761 198.90155835 -30.23108942 198.69059575 -25.60449219 198.82104492 C-24.91871094 198.80170898 -24.23292969 198.78237305 -23.52636719 198.76245117 C-17.81717553 198.81692819 -15.45234604 200.56299729 -11.60449219 204.44604492 C-10.07234331 207.51034268 -10.37510671 210.06260912 -10.60449219 213.44604492 C-12.28801052 217.14978525 -14.08392997 219.42129508 -17.60449219 221.44604492 C-20.5153925 221.7929248 -23.13539551 221.95597352 -26.04199219 221.94604492 C-26.79287109 221.9744043 -27.54375 222.00276367 -28.31738281 222.03198242 C-30.52629031 222.03975342 -32.45467689 221.96105016 -34.60449219 221.44604492 C-35.38308594 220.64166992 -36.16167969 219.83729492 -36.96386719 219.00854492 C-40.94495725 215.14523859 -45.05162586 215.39065486 -50.41699219 214.94604492 C-71.35147061 212.68050815 -93.77382163 205.61284426 -107.76074219 188.86401367 C-110.95884217 184.49284013 -112.92962247 180.59949021 -114.60449219 175.44604492 C-116.52115885 174.27937826 -116.52115885 174.27937826 -118.60449219 173.44604492 C-122.00692333 170.01611272 -121.98373519 167.16317777 -121.99267578 162.45288086 C-121.99793274 161.75623322 -122.0031897 161.05958557 -122.00860596 160.34182739 C-122.0218073 158.03779648 -122.01305636 155.73445799 -122.00292969 153.43041992 C-122.00495313 151.81536732 -122.00786681 150.20031561 -122.0116272 148.58526611 C-122.016053 145.1924168 -122.00962152 141.7998042 -121.99560547 138.40698242 C-121.9786774 134.10382633 -121.98824755 129.80123844 -122.00632286 125.4981041 C-122.01729528 122.155293 -122.01365088 118.81261075 -122.00593948 115.46979523 C-122.00396575 113.88651713 -122.00629488 112.30322656 -122.01337814 110.71996307 C-122.11529245 81.48839796 -112.63144376 56.17971073 -92.41699219 34.82104492 C-78.91551267 21.91069848 -62.76803203 12.62556851 -45.16699219 6.57104492 C-44.38243652 6.29679687 -43.59788086 6.02254883 -42.78955078 5.73999023 C-28.8896017 1.24532905 -14.53281703 -0.07856378 0 0 Z " fill="#697993" transform="translate(407.6044921875,252.553955078125)"/>
<path d="M0 0 C0.98221427 -0.00262956 0.98221427 -0.00262956 1.98427126 -0.00531223 C4.19976821 -0.01000007 6.41520032 -0.00749963 8.63070011 -0.00507832 C10.22658643 -0.00694489 11.8224723 -0.00924497 13.41835743 -0.01194364 C17.82046115 -0.01808703 22.22254595 -0.01792508 26.62465298 -0.01674926 C31.36569046 -0.0165459 36.10672176 -0.02205786 40.84775639 -0.02680683 C50.14233601 -0.03512772 59.4369093 -0.03786232 68.73149233 -0.03841921 C76.28290828 -0.03889367 83.83432213 -0.04094489 91.38573742 -0.04411983 C112.77434869 -0.05293014 134.16295493 -0.05753859 155.55156802 -0.05678936 C156.70561634 -0.0567494 157.85966465 -0.05670945 159.04868412 -0.05666828 C160.2041341 -0.0566274 161.35958408 -0.05658652 162.5500477 -0.0565444 C181.28466289 -0.05613777 200.019258 -0.06571065 218.75386738 -0.07980665 C237.96980749 -0.09415124 257.18573779 -0.1010779 276.40168339 -0.10021287 C287.1982909 -0.09988025 297.99487736 -0.10265582 308.79148006 -0.11339092 C317.98252717 -0.12247074 327.17354368 -0.124692 336.36459332 -0.1178815 C341.05754281 -0.11460356 345.7504335 -0.11460521 350.44337749 -0.12323475 C354.7346216 -0.13104476 359.02575976 -0.12972522 363.31700111 -0.12095062 C364.87418541 -0.11940341 366.43137739 -0.12127718 367.98855262 -0.12681069 C370.09612649 -0.13380742 372.20332213 -0.1286277 374.31088257 -0.12025452 C375.4842734 -0.12047188 376.65766424 -0.12068925 377.86661237 -0.12091321 C380.71836185 0.12863445 380.71836185 0.12863445 383.71836185 2.12863445 C384.09336185 5.62863445 384.09336185 5.62863445 383.71836185 9.12863445 C380.13411783 11.51813047 378.57228085 11.38078783 374.31367588 11.38590336 C373.65771252 11.38940943 373.00174916 11.39291551 372.32590812 11.39652783 C370.11244529 11.40588362 367.89924316 11.4009079 365.68576908 11.39605999 C364.08901806 11.39979414 362.49226887 11.40439471 360.89552259 11.40979064 C356.49566258 11.4220649 352.09587835 11.42175499 347.69600511 11.41940188 C342.95565786 11.41899484 338.21533527 11.43002199 333.47499943 11.43951702 C324.18389609 11.45615151 314.89281812 11.46162764 305.60170114 11.46274178 C298.05316676 11.46369096 290.50464077 11.46779472 282.95610905 11.47414303 C261.57340273 11.49176101 240.19071652 11.50098086 218.80800289 11.49948208 C217.07777853 11.49936221 217.07777853 11.49936221 215.31260014 11.49923992 C214.15771565 11.49915816 213.00283117 11.4990764 211.81295019 11.49899216 C193.08483921 11.49817878 174.35680856 11.51732806 155.62872082 11.54551665 C136.41726479 11.57420562 117.20584799 11.5880592 97.99436998 11.5863291 C87.20110496 11.58566389 76.40792417 11.59121369 65.61467838 11.6126852 C56.42728721 11.63084449 47.24001848 11.63528768 38.05261719 11.62166636 C33.3616217 11.61511042 28.67086146 11.61511353 23.97988796 11.63237286 C19.69042542 11.64799322 15.40138682 11.64535428 11.11193532 11.62780459 C9.55545249 11.62471018 7.99893887 11.62845787 6.44249231 11.63952474 C4.33548853 11.65352082 2.22999786 11.64316156 0.12304783 11.62641239 C-1.04980093 11.62684713 -2.2226497 11.62728186 -3.43103933 11.62772977 C-6.28163815 11.12863445 -6.28163815 11.12863445 -8.19364977 9.29674208 C-9.72387812 6.24735311 -9.210303 4.34324358 -8.28163815 1.12863445 C-5.470258 -0.27705562 -3.14639573 0.00188915 0 0 Z " fill="#C9D1F8" transform="translate(605.2816381454468,248.87136554718018)"/>
<path d="M0 0 C1.41788483 -0.00782324 1.41788483 -0.00782324 2.8644138 -0.01580453 C3.90486707 -0.01134309 4.94532035 -0.00688164 6.01730251 -0.002285 C7.67286943 -0.00696498 7.67286943 -0.00696498 9.36188215 -0.01173949 C13.07922401 -0.01974951 16.79640399 -0.01338412 20.51374722 -0.00710678 C23.17101429 -0.00981529 25.82827001 -0.01330277 28.48553371 -0.0177269 C34.96489721 -0.02663278 41.44421443 -0.02469367 47.92357976 -0.01890162 C53.18760691 -0.01439021 58.45162107 -0.01376996 63.7156496 -0.01594925 C64.83819503 -0.01640895 64.83819503 -0.01640895 65.98341815 -0.01687793 C67.50355209 -0.01751736 69.02368602 -0.01816579 70.54381996 -0.01882312 C84.80681974 -0.02452981 99.06979384 -0.017963 113.33278941 -0.00722238 C125.58094706 0.00171527 137.82906681 0.00015998 150.07722378 -0.00905991 C164.2897186 -0.01975341 178.50219091 -0.02398239 192.7146892 -0.01783538 C194.2290169 -0.01719826 195.7433446 -0.01656952 197.25767231 -0.01594925 C198.37538739 -0.01548642 198.37538739 -0.01548642 199.51568257 -0.01501425 C204.77615705 -0.01328468 210.0366173 -0.016208 215.29708958 -0.02090836 C221.70378912 -0.0265069 228.11043964 -0.02502238 234.51713354 -0.01434687 C237.78823991 -0.00907652 241.05924712 -0.00812603 244.33035564 -0.01364517 C247.8700492 -0.01906895 251.40950884 -0.01230516 254.94918728 -0.002285 C255.99187128 -0.00674645 257.03455527 -0.01120789 258.10883576 -0.01580453 C259.05148456 -0.01058903 259.99413337 -0.00537354 260.96534729 0 C261.78315754 0.0003247 262.6009678 0.00064941 263.44356018 0.00098395 C265.41975307 0.25168228 265.41975307 0.25168228 267.41975307 2.25168228 C267.16975307 5.81418228 267.16975307 5.81418228 266.41975307 9.25168228 C264.05226874 10.43542445 262.63749411 10.37699522 259.99658203 10.37752342 C259.06090002 10.38013117 258.125218 10.38273892 257.16118199 10.38542569 C256.12627989 10.38319497 255.09137778 10.38096424 254.02511501 10.37866592 C252.93113083 10.38022591 251.83714664 10.38178591 250.71001142 10.38339317 C247.01957659 10.38740321 243.3291824 10.38421348 239.63874722 10.38107681 C237.00295801 10.38243086 234.36717168 10.38417445 231.73138332 10.38638687 C225.30035364 10.39084269 218.8693356 10.38986889 212.43830545 10.38697423 C207.21288143 10.38471927 201.98746069 10.38440808 196.76203632 10.38549805 C196.01937666 10.38565128 195.276717 10.38580451 194.51155249 10.38596239 C193.00301675 10.3862821 191.49448101 10.38660632 189.98594528 10.38693498 C175.82688974 10.38978927 161.66784067 10.38650365 147.50878619 10.38113461 C135.35190798 10.37666754 123.19503932 10.37744181 111.03816128 10.38205338 C96.93260921 10.38740162 82.82706281 10.38951361 68.72150987 10.38644111 C67.21810178 10.38612255 65.71469369 10.38580818 64.21128559 10.38549805 C63.47151615 10.38534377 62.73174671 10.3851895 61.96956002 10.38503055 C56.74914531 10.38416607 51.52873419 10.38562679 46.30832005 10.3879776 C39.9481177 10.3907786 33.58792769 10.390031 27.22772676 10.38469686 C23.98083085 10.38206378 20.73395986 10.38158398 17.48706341 10.38434601 C13.97181303 10.38706146 10.45662137 10.38367143 6.94137478 10.37866592 C5.9087034 10.38089665 4.87603202 10.38312737 3.81206757 10.38542569 C2.87377781 10.38281794 1.93548804 10.38021019 0.96876526 10.37752342 C0.15686818 10.37736107 -0.6550289 10.37719872 -1.49152893 10.37703145 C-3.58024693 10.25168228 -3.58024693 10.25168228 -6.58024693 9.25168228 C-6.91024693 6.94168228 -7.24024693 4.63168228 -7.58024693 2.25168228 C-4.40063322 0.13193981 -3.63782389 0.00144408 0 0 Z " fill="#E0E5FA" transform="translate(603.580246925354,270.74831771850586)"/>
<path d="M0 0 C1.64574566 -0.02688151 3.29161413 -0.04634123 4.9375 -0.0625 C5.85402344 -0.07410156 6.77054688 -0.08570313 7.71484375 -0.09765625 C10 0 10 0 11 1 C11.04092937 3.33297433 11.04241723 5.66705225 11 8 C13.80764728 8.77426109 13.80764728 8.77426109 17 9 C18.36161311 8.03886134 19.69855198 7.04115841 21 6 C24.14844588 6 25.32581015 7.26064812 27.8125 9.25 C30 12 30 12 29.875 14.5625 C29.441875 15.7690625 29.441875 15.7690625 29 17 C28.07832653 20.1336898 27.91357897 20.7407369 29 24 C32.51190809 25.22969878 32.51190809 25.22969878 36 26 C36.02688151 27.64574566 36.04634123 29.29161413 36.0625 30.9375 C36.07410156 31.85402344 36.08570313 32.77054688 36.09765625 33.71484375 C36 36 36 36 35 37 C32.66702567 37.04092937 30.33294775 37.04241723 28 37 C27.23477199 40.35458155 27.23477199 40.35458155 27 44 C28.29264699 45.96431405 28.29264699 45.96431405 30 47 C28.55754029 50.36573933 26.916532 52.75010389 24 55 C21.5 54.8125 21.5 54.8125 19 54 C15.8663102 53.07832653 15.2592631 52.91357897 12 54 C10.77030122 57.51190809 10.77030122 57.51190809 10 61 C6.7 61 3.4 61 0 61 C-0.5878125 59.2984375 -0.5878125 59.2984375 -1.1875 57.5625 C-2.59219188 53.85705598 -2.59219188 53.85705598 -5.5 52.9375 C-8.25394157 52.78382114 -8.25394157 52.78382114 -11 55 C-14.85358487 54.74309434 -17.1622086 52.44365371 -20 50 C-19.48579339 47.42896697 -18.96897576 44.86659575 -18.375 42.3125 C-17.76572985 39.98135781 -17.76572985 39.98135781 -19 38 C-21.3140622 37.26924352 -23.64828869 36.59861742 -26 36 C-26 32.7 -26 29.4 -26 26 C-23.69 25.34 -21.38 24.68 -19 24 C-18.31506627 21.14221967 -18.31506627 21.14221967 -18 18 C-18.66 17.01 -19.32 16.02 -20 15 C-19.90794269 11.4097648 -19.21651053 10.22236216 -16.6875 7.625 C-14 6 -14 6 -11.75 6.1875 C-10 7 -10 7 -9 8 C-6.66055264 7.71269945 -4.3260857 7.38063221 -2 7 C-1.34 4.69 -0.68 2.38 0 0 Z " fill="#6A7993" transform="translate(163,213)"/>
<path d="M0 0 C1.02359973 -0.00701996 1.02359973 -0.00701996 2.06787825 -0.01418173 C4.35961685 -0.02616928 6.6507616 -0.01666028 8.94250488 -0.00723267 C10.58338267 -0.01129671 12.22425772 -0.01663765 13.86512756 -0.02316284 C18.32582089 -0.03686215 22.78630651 -0.03152706 27.24700356 -0.02202559 C31.91011754 -0.0144425 36.57321346 -0.02147083 41.23632812 -0.02618408 C49.06794434 -0.03164558 56.89947575 -0.02443969 64.7310791 -0.01016235 C73.79191303 0.00616492 82.85254445 0.00087669 91.91337347 -0.01564157 C99.68583331 -0.02924521 107.45823212 -0.0311816 115.23070002 -0.02332556 C119.87591529 -0.01864286 124.52103531 -0.01804054 129.16624451 -0.02793503 C133.53291769 -0.03658613 137.8993292 -0.03061694 142.26597404 -0.01325226 C143.87081912 -0.00927745 145.47568612 -0.01043839 147.08052254 -0.01704025 C149.26695337 -0.02520697 151.45253939 -0.01499441 153.63891602 0 C154.86376961 0.00113108 156.0886232 0.00226215 157.35059357 0.00342751 C160.31945801 0.38095093 160.31945801 0.38095093 162.24871063 1.74460411 C163.31945801 3.38095093 163.31945801 3.38095093 163.13195801 5.94345093 C162.31945801 8.38095093 162.31945801 8.38095093 160.31945801 10.38095093 C157.47084808 10.6298399 157.47084808 10.6298399 153.75244141 10.62818909 C153.07019044 10.6306035 152.38793948 10.63301792 151.68501425 10.6355055 C149.387936 10.64116284 147.09113335 10.63246422 144.79406738 10.62387085 C143.15171737 10.62494323 141.50936773 10.62688125 139.86701965 10.62962341 C135.39810089 10.63448196 130.92928157 10.62680352 126.46037483 10.61667037 C121.79145541 10.60790612 117.12253925 10.609647 112.45361328 10.61003113 C104.6118401 10.60909373 96.77010556 10.60039971 88.92834473 10.58676147 C79.852234 10.57103516 70.77616561 10.56576333 61.70004225 10.56649703 C52.98193236 10.5671067 44.26383632 10.56200686 35.54573059 10.55370522 C31.82965487 10.55016777 28.11358404 10.54834131 24.39750671 10.54781151 C20.02436452 10.54680935 15.65125808 10.54072316 11.27812767 10.53064537 C9.66963609 10.52771646 8.0611404 10.52649579 6.45264626 10.52707291 C4.26388396 10.52756117 2.07522286 10.52193189 -0.11352539 10.5146637 C-1.9541367 10.51214993 -1.9541367 10.51214993 -3.83193207 10.50958538 C-6.68054199 10.38095093 -6.68054199 10.38095093 -8.68054199 9.38095093 C-9.49304199 6.50595093 -9.49304199 6.50595093 -9.68054199 3.38095093 C-7.24854506 -0.41554714 -4.21655828 0.00389373 0 0 Z " fill="#E1E6FB" transform="translate(605.6805419921875,291.6190490722656)"/>
<path d="M0 0 C0 8.58 0 17.16 0 26 C2.64 26.33 5.28 26.66 8 27 C10.77343929 27.48859132 13.50802274 28.10886167 16.25 28.75 C16.9814624 28.92047852 17.7129248 29.09095703 18.46655273 29.26660156 C24.96460445 30.85540896 30.9393848 33.15069343 37 36 C37 36.33 37 36.66 37 37 C0.37 37 -36.26 37 -74 37 C-72.28462847 33.56925693 -68.45019279 33.21816173 -64.96679688 32.02929688 C-63.88462891 31.66900391 -62.80246094 31.30871094 -61.6875 30.9375 C-60.64787109 30.57333984 -59.60824219 30.20917969 -58.53710938 29.83398438 C-51.33398414 27.41805707 -44.58904906 26.27975318 -37 26 C-37 24.35 -37 22.7 -37 21 C-36.43716309 20.71914551 -35.87432617 20.43829102 -35.29443359 20.14892578 C-24.46137398 14.70700772 -14.17015613 9.16407296 -4.51953125 1.80078125 C-2 0 -2 0 0 0 Z " fill="#FAFBFD" transform="translate(609,527)"/>
<path d="M0 0 C1.68018394 0.86731476 3.36419362 1.72723588 5.05078125 2.58203125 C13.17537359 6.72391214 21.22098238 11.00394132 29.203125 15.4140625 C30.19715332 15.96247803 31.19118164 16.51089355 32.21533203 17.07592773 C34.11589439 18.12858859 36.01288783 19.18772618 37.90576172 20.25415039 C39.19377686 20.96945923 39.19377686 20.96945923 40.5078125 21.69921875 C41.25691895 22.12033936 42.00602539 22.54145996 42.77783203 22.9753418 C46.65144031 24.76149143 49.35194435 25.11369397 53.5625 24.375 C57 24 57 24 59.4375 25 C61 27 61 27 61.5 30.4375 C61 34 61 34 59.4375 36.5 C57 38 57 38 53.375 37.9375 C50 37 50 37 48 34 C47.875 31.3125 47.875 31.3125 48 29 C47.29979736 28.89888916 46.59959473 28.79777832 45.87817383 28.69360352 C42.52989437 27.88671048 39.97022159 26.55666363 36.94921875 24.90234375 C36.37755478 24.59214798 35.80589081 24.28195221 35.21690369 23.96235657 C33.99906779 23.30088214 32.78277772 22.63655492 31.56793213 21.96960449 C28.4184903 20.24098424 25.25762909 18.53348841 22.09765625 16.82421875 C21.17028656 16.32162033 21.17028656 16.32162033 20.22418213 15.80886841 C13.23409265 12.028657 6.13904588 8.48860177 -1 5 C-3.00091491 4.00183192 -5.00120919 3.00241473 -7 2 C-7.0825 2.763125 -7.165 3.52625 -7.25 4.3125 C-8 7 -8 7 -9.6875 8.875 C-12.89829508 10.43700842 -14.63513237 10.07389392 -18 9 C-19.9375 7.375 -19.9375 7.375 -21 5 C-20.6875 1.25 -20.6875 1.25 -20 -2 C-34.56791724 -1.75974949 -45.31460674 2.94284 -57.88256836 9.75170898 C-71.29857412 17 -71.29857412 17 -77 17 C-76.505 18.485 -76.505 18.485 -76 20 C-75.55762082 26.19330855 -75.55762082 26.19330855 -77.0625 28.9375 C-80.11976176 30.6140629 -82.5906288 30.36528977 -86 30 C-87.9375 28.8125 -87.9375 28.8125 -89 27 C-89.0423381 25.33387117 -89.04635413 23.66602193 -89 22 C-114.40044947 29.95243353 -114.40044947 29.95243353 -139 40 C-139.71800781 40.29519531 -140.43601562 40.59039062 -141.17578125 40.89453125 C-144.15027805 42.69706357 -144.13507063 45.77093037 -145 49 C-148.46923881 51.31282587 -149.92205575 51.42478586 -154 51 C-155.875 50 -155.875 50 -157 48 C-157.53967465 44.40216898 -157.68523932 41.21820324 -155.875 38 C-153.15356832 36.54856977 -151.04145634 36.75171785 -148 37 C-147.3488623 37.20149658 -146.69772461 37.40299316 -146.02685547 37.6105957 C-142.39617689 38.30813031 -139.27293749 35.84648016 -136.125 34.1875 C-127.56107761 29.89741851 -118.76828197 26.6665344 -109.6875 23.6875 C-108.4495166 23.27975342 -107.2115332 22.87200684 -105.93603516 22.4519043 C-99.92078021 20.50344132 -93.89371861 18.67967369 -87.796875 17.00390625 C-81.47756533 15.21946897 -75.55073465 12.9296092 -69.5625 10.25 C-68.08716797 9.6012793 -68.08716797 9.6012793 -66.58203125 8.93945312 C-59.57653544 5.81723935 -52.81754565 2.39131107 -46.15625 -1.40625 C-32.64455579 -8.22898668 -12.98932669 -7.40251951 0 0 Z " fill="#BBACE5" transform="translate(804,355)"/>
<path d="M0 0 C0 20.79 0 41.58 0 63 C-8.60160726 61.77119896 -13.90566757 58.97327225 -19.375 52.1875 C-25.50133979 43.11711359 -25.93356051 33.64473589 -25 23 C-23.21675885 14.56605442 -17.98404151 7.40530276 -10.87890625 2.55078125 C-6.7869154 0.34621151 -4.8941874 0 0 0 Z " fill="#ACCFFA" transform="translate(286,358)"/>
<path d="M0 0 C1.8253125 0.0309375 1.8253125 0.0309375 3.6875 0.0625 C4.1825 2.5375 4.1825 2.5375 4.6875 5.0625 C4.06294922 5.22331055 3.43839844 5.38412109 2.79492188 5.54980469 C-0.0767021 6.2948115 -2.9445319 7.05354661 -5.8125 7.8125 C-7.28589844 8.19148438 -7.28589844 8.19148438 -8.7890625 8.578125 C-14.73422757 10.16350235 -19.91294066 12.10559846 -25.3125 15.0625 C-24.8175 16.0525 -24.8175 16.0525 -24.3125 17.0625 C-25.41207031 17.619375 -26.51164062 18.17625 -27.64453125 18.75 C-45.21660169 27.75733087 -57.58553715 38.91918036 -71.3125 53.0625 C-73.3125 50.0625 -73.3125 50.0625 -73 47.0625 C-71.06050994 41.14392712 -66.384285 36.6160359 -62.3125 32.0625 C-61.69246094 31.35867188 -61.07242187 30.65484375 -60.43359375 29.9296875 C-46.49233012 15.05499153 -21.00052979 -0.35594118 0 0 Z " fill="#F7F7F9" transform="translate(383.3125,267.9375)"/>
<path d="M0 0 C3.70981445 1.64880642 6.33252649 3.95145885 9 7 C10.3605163 11.08154889 10.80116991 14.76588049 9.31640625 18.90625 C7.69396907 22.08380331 6.23809028 23.82835352 3.3125 25.9375 C-0.95975841 27.30784704 -4.57041977 27.95359019 -9 27 C-12.76273981 24.86207966 -15.28907172 22.236397 -17.4375 18.5 C-18.47880625 13.87197224 -18.61138268 11.13219015 -16.3125 6.875 C-11.3807882 0.74368263 -7.80944722 -1.18066324 0 0 Z " fill="#1B1F2C" transform="translate(451,377)"/>
<path d="M0 0 C3.2591838 2.36450589 4.74801664 3.58677836 6.1875 7.3125 C6.71968983 12.90049317 6.43765553 16.54560522 3.1875 21.3125 C-1.0311735 25.22249007 -4.74951208 26.05081148 -10.3359375 25.83984375 C-14.47554097 24.95838244 -17.21294667 22.57982849 -19.8125 19.3125 C-21.26478719 14.95563842 -21.44919736 10.86134895 -20.8125 6.3125 C-19.18864084 3.1232406 -16.84583465 1.09640904 -14 -1.0625 C-8.97210151 -2.49904243 -4.60838805 -2.4115929 0 0 Z " fill="#1B1E2C" transform="translate(384.8125,378.6875)"/>
<path d="M0 0 C8.32788287 6.92905879 13.16901608 16.20270166 14.37109375 26.99609375 C14.83347747 51.23044033 3.83253451 69.8259714 -12.203125 87.02734375 C-14 88.6640625 -14 88.6640625 -16 88.6640625 C-16.268125 89.2621875 -16.53625 89.8603125 -16.8125 90.4765625 C-19.0712263 94.6373741 -21.94306002 96.19919452 -26.02758789 98.50488281 C-30.00555964 100.84272287 -33.7720288 103.51281928 -37.5703125 106.12890625 C-40.9521162 108.42271163 -44.0986141 110.33370485 -48 111.6640625 C-48 110.3440625 -48 109.0240625 -48 107.6640625 C-47.14019531 107.20257812 -46.28039062 106.74109375 -45.39453125 106.265625 C-36.60911128 101.4562623 -28.70985186 96.04785928 -21 89.6640625 C-19.56140625 88.49230469 -19.56140625 88.49230469 -18.09375 87.296875 C-4.48580952 75.63838666 8.37295078 57.08789347 9.91015625 38.75390625 C9.93980469 38.06425781 9.96945312 37.37460937 10 36.6640625 C10.03996094 35.79910156 10.07992187 34.93414062 10.12109375 34.04296875 C10.37415747 23.31008991 8.39941613 15.43249325 2 6.6640625 C-4.9066112 -0.55648557 -14.18447834 -2.96074255 -23.875 -3.5859375 C-33.3209395 -3.48955036 -42.99177214 -1.02670686 -52 1.6640625 C-51.88671875 -0.19921875 -51.88671875 -0.19921875 -51 -2.3359375 C-48.26953125 -3.56640625 -48.26953125 -3.56640625 -44.8125 -4.5234375 C-43.68457031 -4.84699219 -42.55664062 -5.17054688 -41.39453125 -5.50390625 C-27.12195447 -9.00224785 -12.23843852 -8.87286793 0 0 Z " fill="#EAECF7" transform="translate(631,431.3359375)"/>
<path d="M0 0 C10.42594624 -0.92675078 19.87939939 4.71838508 28.8125 9.5 C30.27888916 10.27307495 30.27888916 10.27307495 31.77490234 11.06176758 C36.94596884 13.79883088 42.08579144 16.5888543 47.20703125 19.41796875 C48.20049561 19.96582031 49.19395996 20.51367188 50.2175293 21.078125 C52.11739444 22.12975914 54.0135774 23.18808061 55.90551758 24.25390625 C56.7642749 24.73085938 57.62303223 25.2078125 58.5078125 25.69921875 C59.63147217 26.33089966 59.63147217 26.33089966 60.77783203 26.9753418 C64.65144031 28.76149143 67.35194435 29.11369397 71.5625 28.375 C75 28 75 28 77.4375 29 C79 31 79 31 79.5 34.4375 C79 38 79 38 77.4375 40.5 C75 42 75 42 71.375 41.9375 C68 41 68 41 66 38 C65.875 35.3125 65.875 35.3125 66 33 C65.29979736 32.89888916 64.59959473 32.79777832 63.87817383 32.69360352 C60.52989437 31.88671048 57.97022159 30.55666363 54.94921875 28.90234375 C54.37755478 28.59214798 53.80589081 28.28195221 53.21690369 27.96235657 C51.99906779 27.30088214 50.78277772 26.63655492 49.56793213 25.96960449 C46.4184903 24.24098424 43.25762909 22.53348841 40.09765625 20.82421875 C39.47940979 20.48915314 38.86116333 20.15408752 38.22418213 19.80886841 C31.23409265 16.028657 24.13904588 12.48860177 17 9 C14.99908509 8.00183192 12.99879081 7.00241473 11 6 C10.9175 6.763125 10.835 7.52625 10.75 8.3125 C10 11 10 11 8.3125 12.875 C5.10170492 14.43700842 3.36486763 14.07389392 0 13 C-2.43044773 10.73158211 -2.96070783 9.57628517 -3.1875 6.25 C-3.125625 5.5075 -3.06375 4.765 -3 4 C-2.34 4 -1.68 4 -1 4 C-0.67 2.68 -0.34 1.36 0 0 Z " fill="#B5A5E1" transform="translate(786,351)"/>
<path d="M0 0 C4.06390632 1.91693694 5.66612709 3.42918502 7.9375 7.3125 C9.15310494 11.53136421 9.22465416 13.79025132 8 18 C6.12626166 20.90527374 4.14676918 23.42661541 1 25 C-4.08942479 25.49992739 -8.51742937 25.81692667 -13.0625 23.3125 C-16.04804889 19.74910294 -16.87183312 17.17486307 -17.375 12.5625 C-16.82551718 7.34241319 -14.73805264 4.4483772 -10.75 1.125 C-7.09608696 -0.36978261 -3.85263669 -0.66476868 0 0 Z " fill="#F9F9F8" transform="translate(172,231)"/>
<path d="M0 0 C3.42162539 1.69684688 5.45943274 4.10688888 7.4375 7.375 C8.32177231 11.50160411 8.21312665 15.1039594 5.8828125 18.74609375 C3.55133944 21.6224969 1.79779482 23.74830872 -1.953125 24.2734375 C-6.15148712 24.45907936 -9.07490427 24.45668199 -12.4375 21.75 C-15.84547701 18.09265882 -16.85961583 16.54422592 -17.3125 11.5625 C-16.90769249 6.94769433 -15.63971181 4.46225382 -12.1953125 1.390625 C-8.35442141 -1.04239498 -4.38210744 -0.73956703 0 0 Z " fill="#FCFCFD" transform="translate(225,289)"/>
<path d="M0 0 C-0.33 0.33 -0.66 0.66 -1 1 C-0.01 1.66 0.98 2.32 2 3 C0.76080811 3.36967896 0.76080811 3.36967896 -0.50341797 3.74682617 C-3.61816157 4.68081332 -6.73018713 5.62300876 -9.84082031 6.57055664 C-11.17806219 6.97612676 -12.51625856 7.37856533 -13.85546875 7.77758789 C-21.19434356 9.96661604 -28.17873334 12.32551541 -34.95751953 15.93969727 C-37.39539637 17.20526015 -39.88374048 18.05104814 -42.5 18.875 C-44.97937371 19.73929641 -44.97937371 19.73929641 -47 21 C-48.54086322 24.51400668 -48.54086322 24.51400668 -49 28 C-52.46923881 30.31282587 -53.92205575 30.42478586 -58 30 C-59.875 29 -59.875 29 -61 27 C-61.53967465 23.40216898 -61.68523932 20.21820324 -59.875 17 C-57.15356832 15.54856977 -55.04145634 15.75171785 -52 16 C-51.0265564 16.30333252 -51.0265564 16.30333252 -50.03344727 16.61279297 C-46.35085798 17.314028 -43.1356413 14.80151277 -39.9375 13.125 C-31.66120207 8.98478341 -23.21528403 5.7933494 -14.4375 2.875 C-13.24181396 2.47297363 -12.04612793 2.07094727 -10.81420898 1.65673828 C-2.26225 -1.131125 -2.26225 -1.131125 0 0 Z " fill="#BBACE0" transform="translate(708,376)"/>
<path d="M0 0 C3.623345 0.43919333 5.49909942 2.06380326 8.125 4.5 C11.52735857 7.89872354 11.52735857 7.89872354 15.98828125 9.0546875 C20.36472584 8.71634052 22.46086269 8.44736925 25.9375 5.5625 C26.618125 4.716875 27.29875 3.87125 28 3 C30 1 30 1 33.125 0.875 C34.07375 0.91625 35.0225 0.9575 36 1 C36.0578082 3.83260193 36.03526101 5.41434811 35 8 C29.75370273 13.30887736 24.86057289 16.11834767 17.375 16.4375 C9.32018036 16.37899041 4.89076749 12.89076749 -0.625 7.375 C-2 5 -2 5 -1.8125 2.75 C-1 1 -1 1 0 0 Z " fill="#E65959" transform="translate(395,421)"/>
<path d="M0 0 C2 1 2 1 3 3 C1.90042969 3.556875 0.80085938 4.11375 -0.33203125 4.6875 C-17.90410169 13.69483087 -30.27303715 24.85668036 -44 39 C-44.66 38.01 -45.32 37.02 -46 36 C-45.125 32.3125 -45.125 32.3125 -44 29 C-43.67 29.66 -43.34 30.32 -43 31 C-42.34 31 -41.68 31 -41 31 C-40.77957031 30.44699219 -40.55914062 29.89398438 -40.33203125 29.32421875 C-38.59121307 26.28672075 -36.25991296 24.13316582 -33.6875 21.8125 C-33.15624512 21.33200195 -32.62499023 20.85150391 -32.07763672 20.35644531 C-22.57608437 11.93720742 -11.83180258 4.71951958 0 0 Z " fill="#EBEEF6" transform="translate(356,282)"/>
<path d="M0 0 C2.4375 1.5625 2.4375 1.5625 4 4 C4.57437023 8.02059163 4.6899176 10.06368326 2.25 13.375 C-0.0278193 15.02009172 -1.21139899 15.83099388 -4 16 C-6.625 15.375 -6.625 15.375 -9 14 C-10.80202945 11.05122453 -11.01977221 9.32953681 -10.8125 5.875 C-9.08041166 -0.25392797 -6.1783483 -0.75874453 0 0 Z " fill="#FBFCFC" transform="translate(247,316)"/>
<path d="M0 0 C5.06533667 -0.20674844 9.25400985 0.13882739 14 2 C15.4375 4.125 15.4375 4.125 16 6 C14.35 6 12.7 6 11 6 C10.9175 6.763125 10.835 7.52625 10.75 8.3125 C10 11 10 11 8.3125 12.875 C5.10170492 14.43700842 3.36486763 14.07389392 0 13 C-2.43044773 10.73158211 -2.96070783 9.57628517 -3.1875 6.25 C-3.125625 5.5075 -3.06375 4.765 -3 4 C-2.34 4 -1.68 4 -1 4 C-0.67 2.68 -0.34 1.36 0 0 Z " fill="#AF90EA" transform="translate(786,351)"/>
<path d="M0 0 C-0.33 0.33 -0.66 0.66 -1 1 C-0.01 1.66 0.98 2.32 2 3 C0.76080811 3.36967896 0.76080811 3.36967896 -0.50341797 3.74682617 C-3.61816157 4.68081332 -6.73018713 5.62300876 -9.84082031 6.57055664 C-11.17806219 6.97612676 -12.51625856 7.37856533 -13.85546875 7.77758789 C-21.29412048 9.99637735 -28.35275402 12.35033815 -35.14892578 16.1730957 C-35.75978027 16.44597412 -36.37063477 16.71885254 -37 17 C-37.66 16.67 -38.32 16.34 -39 16 C-38.74438477 14.12280273 -38.74438477 14.12280273 -38 12 C-36.30444336 10.89086914 -36.30444336 10.89086914 -34.08984375 10.03515625 C-33.27177246 9.71216553 -32.45370117 9.3891748 -31.61083984 9.05639648 C-30.7286377 8.72841064 -29.84643555 8.4004248 -28.9375 8.0625 C-27.59486084 7.54635132 -27.59486084 7.54635132 -26.22509766 7.01977539 C-20.49122289 4.84655853 -14.71442615 2.80870109 -8.875 0.9375 C-8.20718506 0.7216626 -7.53937012 0.5058252 -6.85131836 0.28344727 C-2.24855692 -1.12427846 -2.24855692 -1.12427846 0 0 Z " fill="#C2B5E5" transform="translate(708,376)"/>
<path d="M0 0 C2 2 2 2 2.375 5.375 C2 9 2 9 0.4375 11.5 C-2 13 -2 13 -5.625 12.9375 C-9 12 -9 12 -11 9 C-11.07905064 6.66800612 -11.08798769 4.33167378 -11 2 C-10.34 2 -9.68 2 -9 2 C-9 1.34 -9 0.68 -9 0 C-5.88135455 -1.55932272 -3.33704665 -0.65549131 0 0 Z " fill="#8E85DB" transform="translate(863,380)"/>
<path d="M0 0 C0 0.66 0 1.32 0 2 C0.66 2 1.32 2 2 2 C2.35915493 8.34507042 2.35915493 8.34507042 0.9375 10.9375 C-2.11976176 12.6140629 -4.5906288 12.36528977 -8 12 C-9.9375 10.875 -9.9375 10.875 -11 9 C-11.5 6.0625 -11.5 6.0625 -11 3 C-7.42955972 -1.09550502 -5.14153612 -1.43484729 0 0 Z " fill="#A6A0EA" transform="translate(726,373)"/>
<path d="M0 0 C4.96988542 -0.32776852 8.74108806 0.76663964 13.25 2.6875 C13.90460205 2.95788086 14.5592041 3.22826172 15.23364258 3.50683594 C20.61537973 5.7607315 25.8359255 8.28517226 31 11 C32.33195498 11.66941627 33.66486326 12.33695241 35 13 C34.34 13 33.68 13 33 13 C32.67 13.66 32.34 14.32 32 15 C31.19820313 14.62488281 30.39640625 14.24976563 29.5703125 13.86328125 C19.94261849 9.52972737 10.21718454 6.61800874 0 4 C0 2.68 0 1.36 0 0 Z " fill="#F5F5F8" transform="translate(439,269)"/>
<path d="M0 0 C0.66 0.33 1.32 0.66 2 1 C-0.40561081 6.10281081 -3.82401605 8.20504673 -8.5 11 C-9.20962891 11.43425293 -9.91925781 11.86850586 -10.65039062 12.31591797 C-16.23360925 15.67618844 -21.95023163 18.56471189 -28 21 C-27.0619269 17.40098751 -26.36657151 16.22193786 -23.12890625 14.26171875 C-21.36353516 13.48248047 -21.36353516 13.48248047 -19.5625 12.6875 C-12.51167155 9.43608644 -5.54139831 5.54139831 0 0 Z " fill="#EAECF8" transform="translate(492,500)"/>
<path d="M0 0 C0.99 0 1.98 0 3 0 C1.97951862 5.75071273 0.67110236 11.17692274 -1.26953125 16.68359375 C-2.53932243 20.71025775 -3.26319514 24.84788788 -4 29 C-4.99 28.34 -5.98 27.68 -7 27 C-6.4135419 21.12209036 -5.23153557 15.76485872 -3.5 10.125 C-3.27441406 9.36703125 -3.04882812 8.6090625 -2.81640625 7.828125 C-1.16012137 2.32024275 -1.16012137 2.32024275 0 0 Z " fill="#E8EAF6" transform="translate(300,539)"/>
<path d="M0 0 C0.66 0.33 1.32 0.66 2 1 C1.67 1.99 1.34 2.98 1 4 C-8.05071225 8.0428733 -18.33129429 7.30930694 -28 7 C-27.67 6.01 -27.34 5.02 -27 4 C-25.53240234 4.05220703 -25.53240234 4.05220703 -24.03515625 4.10546875 C-16.46769658 4.26172898 -10.03569191 4.05830752 -3 1 C-2.01 0.67 -1.02 0.34 0 0 Z " fill="#E7EAF5" transform="translate(372,734)"/>
<path d="M0 0 C1.32 0 2.64 0 4 0 C4.02696365 1.79158489 4.04637917 3.58328473 4.0625 5.375 C4.07410156 6.37273438 4.08570313 7.37046875 4.09765625 8.3984375 C4 11 4 11 3 13 C1.68 12.67 0.36 12.34 -1 12 C-1.02712066 10.56260487 -1.04645067 9.12506137 -1.0625 7.6875 C-1.07410156 6.88699219 -1.08570313 6.08648438 -1.09765625 5.26171875 C-1 3 -1 3 0 0 Z " fill="#B8D2FA" transform="translate(786,628)"/>
<path d="M0 0 C1.51400391 0.01740234 1.51400391 0.01740234 3.05859375 0.03515625 C4.07050781 0.04417969 5.08242188 0.05320313 6.125 0.0625 C7.29869141 0.07990234 7.29869141 0.07990234 8.49609375 0.09765625 C8.49609375 1.74765625 8.49609375 3.39765625 8.49609375 5.09765625 C4.86609375 5.09765625 1.23609375 5.09765625 -2.50390625 5.09765625 C-2.83390625 3.77765625 -3.16390625 2.45765625 -3.50390625 1.09765625 C-2.50390625 0.09765625 -2.50390625 0.09765625 0 0 Z " fill="#BDD4F9" transform="translate(618.50390625,55.90234375)"/>
<path d="M0 0 C0.99 0.33 1.98 0.66 3 1 C2.55530671 6.03985731 0.28656638 8.37634988 -3 12 C-3.99 11.67 -4.98 11.34 -6 11 C-5.39305845 7.84669446 -4.3583335 5.81111133 -2.4375 3.25 C-1.98246094 2.63640625 -1.52742187 2.0228125 -1.05859375 1.390625 C-0.70925781 0.93171875 -0.35992188 0.4728125 0 0 Z " fill="#B7D1FA" transform="translate(781,651)"/>
<path d="M0 0 C-1.09462676 3.1744176 -1.98177335 3.98914157 -4.9375 5.75 C-8 7 -8 7 -11 7 C-11.33 5.68 -11.66 4.36 -12 3 C-10.75823305 2.29773859 -9.50614401 1.61370891 -8.25 0.9375 C-7.20585938 0.36322266 -7.20585938 0.36322266 -6.140625 -0.22265625 C-3.63859372 -1.1312406 -2.4667645 -0.88336837 0 0 Z " fill="#B7D2FA" transform="translate(767,670)"/>
<path d="M0 0 C0.33 0.66 0.66 1.32 1 2 C-1.60183588 2.69761537 -4.20583602 3.38337774 -6.8125 4.0625 C-7.55048828 4.26166016 -8.28847656 4.46082031 -9.04882812 4.66601562 C-14.66015625 6.11328125 -14.66015625 6.11328125 -18 5 C-15.44136151 1.83723854 -12.88973078 1.18429808 -9 0.25 C-7.948125 -0.01296875 -6.89625 -0.2759375 -5.8125 -0.546875 C-3 -1 -3 -1 0 0 Z " fill="#EBEDF7" transform="translate(452,524)"/>
<path d="M0 0 C1.32 0 2.64 0 4 0 C4 4.29 4 8.58 4 13 C2.68 12.67 1.36 12.34 0 12 C0 8.04 0 4.08 0 0 Z " fill="#B4D1FA" transform="translate(786,553)"/>
<path d="M0 0 C1.32 0.33 2.64 0.66 4 1 C4 4.96 4 8.92 4 13 C2.68 13 1.36 13 0 13 C0 8.71 0 4.42 0 0 Z " fill="#B8D2F9" transform="translate(681,162)"/>
<path d="M0 0 C3.56943715 0.30595176 5.03014419 1.02424641 7.875 3.3125 C10 6 10 6 9.8125 8.3125 C9.544375 8.869375 9.27625 9.42625 9 10 C5.17647894 8.4422692 2.70794407 6.08404742 0 3 C0 2.01 0 1.02 0 0 Z " fill="#B9D3FA" transform="translate(661,70)"/>
<path d="M0 0 C3.63 0 7.26 0 11 0 C11.33 1.32 11.66 2.64 12 4 C8.04 4 4.08 4 0 4 C0 2.68 0 1.36 0 0 Z " fill="#B9D4F8" transform="translate(621,677)"/>
<path d="M0 0 C1.45903258 0.30921884 2.91720722 0.62248799 4.375 0.9375 C5.18710937 1.11152344 5.99921875 1.28554688 6.8359375 1.46484375 C9 2 9 2 11 3 C11 4.32 11 5.64 11 7 C6.43545749 6.45660208 3.0271824 5.20536179 -1 3 C-0.67 2.01 -0.34 1.02 0 0 Z " fill="#BAD3FA" transform="translate(640,59)"/>
<path d="M0 0 C3.96 0 7.92 0 12 0 C12 1.32 12 2.64 12 4 C8.04 4 4.08 4 0 4 C0 2.68 0 1.36 0 0 Z " fill="#B7D3F9" transform="translate(670,677)"/>
<path d="M0 0 C1.32 0 2.64 0 4 0 C4 3.96 4 7.92 4 12 C2.68 12 1.36 12 0 12 C0 8.04 0 4.08 0 0 Z " fill="#B2D0FA" transform="translate(786,603)"/>
<path d="M0 0 C1.32 0 2.64 0 4 0 C4 3.96 4 7.92 4 12 C2.68 12 1.36 12 0 12 C0 8.04 0 4.08 0 0 Z " fill="#B3D0FB" transform="translate(786,578)"/>
<path d="M0 0 C1.32 0 2.64 0 4 0 C4 3.96 4 7.92 4 12 C2.68 12 1.36 12 0 12 C0 8.04 0 4.08 0 0 Z " fill="#B6D1FB" transform="translate(786,528)"/>
<path d="M0 0 C3.96 0 7.92 0 12 0 C12 1.32 12 2.64 12 4 C8.04 4 4.08 4 0 4 C0 2.68 0 1.36 0 0 Z " fill="#C0D7F9" transform="translate(188,373)"/>
<path d="M0 0 C1.32 0 2.64 0 4 0 C4 3.96 4 7.92 4 12 C2.68 12 1.36 12 0 12 C0 8.04 0 4.08 0 0 Z " fill="#B5D2F9" transform="translate(681,138)"/>
<path d="M0 0 C1.32 0 2.64 0 4 0 C4 3.96 4 7.92 4 12 C2.68 12 1.36 12 0 12 C0 8.04 0 4.08 0 0 Z " fill="#B7D2F8" transform="translate(681,113)"/>
<path d="M0 0 C3.63 0 7.26 0 11 0 C11 1.32 11 2.64 11 4 C7.04 4 3.08 4 -1 4 C-0.67 2.68 -0.34 1.36 0 0 Z " fill="#B7D1F9" transform="translate(720,677)"/>
<path d="M0 0 C3.63 0 7.26 0 11 0 C11.33 1.32 11.66 2.64 12 4 C8.04 4 4.08 4 0 4 C0 2.68 0 1.36 0 0 Z " fill="#B6D2F9" transform="translate(695,677)"/>
<path d="M0 0 C3.63 0 7.26 0 11 0 C11 1.32 11 2.64 11 4 C7.04 4 3.08 4 -1 4 C-0.67 2.68 -0.34 1.36 0 0 Z " fill="#B7D3F9" transform="translate(646,677)"/>
<path d="M0 0 C3.63 0 7.26 0 11 0 C11.33 1.32 11.66 2.64 12 4 C8.04 4 4.08 4 0 4 C0 2.68 0 1.36 0 0 Z " fill="#B9D3F7" transform="translate(596,677)"/>
<path d="M0 0 C0.99 0.33 1.98 0.66 3 1 C3.14285714 8.42857143 3.14285714 8.42857143 2 12 C0.68 11.67 -0.64 11.34 -2 11 C-1.85957123 9.35369672 -1.71250671 7.70795821 -1.5625 6.0625 C-1.48128906 5.14597656 -1.40007812 4.22945313 -1.31640625 3.28515625 C-1 1 -1 1 0 0 Z " fill="#BFD5F8" transform="translate(415,88)"/>
<path d="M0 0 C1.21236328 0.01353516 1.21236328 0.01353516 2.44921875 0.02734375 C3.37154297 0.04474609 3.37154297 0.04474609 4.3125 0.0625 C4.3125 1.0525 4.3125 2.0425 4.3125 3.0625 C0.04633684 4.20014351 -3.25236311 5.0625 -7.6875 5.0625 C-7.6875 3.7425 -7.6875 2.4225 -7.6875 1.0625 C-4.80538698 0.10179566 -2.98899956 -0.04331883 0 0 Z " fill="#BAD4F9" transform="translate(449.6875,57.9375)"/>
<path d="M0 0 C3.63 0 7.26 0 11 0 C11 1.32 11 2.64 11 4 C7.04 4 3.08 4 -1 4 C-0.67 2.68 -0.34 1.36 0 0 Z " fill="#B9D3F9" transform="translate(591,56)"/>
<path d="M0 0 C3.63 0 7.26 0 11 0 C11 1.32 11 2.64 11 4 C7.04 4 3.08 4 -1 4 C-0.67 2.68 -0.34 1.36 0 0 Z " fill="#BBD3F8" transform="translate(566,56)"/>
<path d="M0 0 C1.32 0 2.64 0 4 0 C4 3.63 4 7.26 4 11 C2.68 11 1.36 11 0 11 C0 7.37 0 3.74 0 0 Z " fill="#C2D6F8" transform="translate(124,569)"/>
<path d="M0 0 C1.32 0 2.64 0 4 0 C4 3.63 4 7.26 4 11 C2.68 11 1.36 11 0 11 C0 7.37 0 3.74 0 0 Z " fill="#BFD4F8" transform="translate(124,444)"/>
<path d="M0 0 C3.63 0 7.26 0 11 0 C11 1.32 11 2.64 11 4 C7.37 4 3.74 4 0 4 C0 2.68 0 1.36 0 0 Z " fill="#C2D6F8" transform="translate(164,373)"/>
<path d="M0 0 C3.3 0 6.6 0 10 0 C10.33 1.32 10.66 2.64 11 4 C7.37 4 3.74 4 0 4 C0 2.68 0 1.36 0 0 Z " fill="#C0D7FA" transform="translate(226,636)"/>
<path d="M0 0 C3.63 0 7.26 0 11 0 C11 1.32 11 2.64 11 4 C7.7 4 4.4 4 1 4 C0.67 2.68 0.34 1.36 0 0 Z " fill="#BED5FA" transform="translate(176,636)"/>
<path d="M0 0 C1.32 0.33 2.64 0.66 4 1 C4 4.3 4 7.6 4 11 C2.68 11 1.36 11 0 11 C0 7.37 0 3.74 0 0 Z " fill="#C2D7F8" transform="translate(124,544)"/>
<path d="M0 0 C1.32 0.33 2.64 0.66 4 1 C4 4.3 4 7.6 4 11 C2.68 11 1.36 11 0 11 C0 7.37 0 3.74 0 0 Z " fill="#BFD5F8" transform="translate(124,419)"/>
<path d="M0 0 C3.3 0 6.6 0 10 0 C10 1.32 10 2.64 10 4 C6.37 4 2.74 4 -1 4 C-0.67 2.68 -0.34 1.36 0 0 Z " fill="#C0D7F9" transform="translate(214,373)"/>
<path d="M0 0 C1.875 0.125 1.875 0.125 4 1 C5.91502155 5.0124261 6.25190641 7.74351821 5 12 C4.01 11.67 3.02 11.34 2 11 C0.60955102 7.12137916 0 4.13537997 0 0 Z " fill="#BAD2F9" transform="translate(676,89)"/>
<path d="M0 0 C3.63 0 7.26 0 11 0 C11 1.32 11 2.64 11 4 C7.37 4 3.74 4 0 4 C0 2.68 0 1.36 0 0 Z " fill="#BBD4F9" transform="translate(201,636)"/>
<path d="M0 0 C0.99 0.33 1.98 0.66 3 1 C3 4.3 3 7.6 3 11 C1.68 11 0.36 11 -1 11 C-1.02688151 9.35425434 -1.04634123 7.70838587 -1.0625 6.0625 C-1.07410156 5.14597656 -1.08570312 4.22945312 -1.09765625 3.28515625 C-1 1 -1 1 0 0 Z " fill="#C0D5F8" transform="translate(125,519)"/>
<path d="M0 0 C0.99 0.33 1.98 0.66 3 1 C3 4.3 3 7.6 3 11 C1.68 11 0.36 11 -1 11 C-1.02688151 9.35425434 -1.04634123 7.70838587 -1.0625 6.0625 C-1.07410156 5.14597656 -1.08570312 4.22945313 -1.09765625 3.28515625 C-1 1 -1 1 0 0 Z " fill="#BFD5F8" transform="translate(125,494)"/>
<path d="M0 0 C0.99 0.33 1.98 0.66 3 1 C3 4.3 3 7.6 3 11 C1.68 11 0.36 11 -1 11 C-1.02688151 9.35425434 -1.04634123 7.70838587 -1.0625 6.0625 C-1.07410156 5.14597656 -1.08570312 4.22945313 -1.09765625 3.28515625 C-1 1 -1 1 0 0 Z " fill="#BFD4F8" transform="translate(125,469)"/>
<path d="M0 0 C0.99 0.33 1.98 0.66 3 1 C2.01 4.3 1.02 7.6 0 11 C-1.32 11 -2.64 11 -4 11 C-3.48964169 6.6109185 -2.47785723 3.66291938 0 0 Z " fill="#BED4F7" transform="translate(130,395)"/>
<path d="M0 0 C3.63 0 7.26 0 11 0 C11 1.32 11 2.64 11 4 C7.37 4 3.74 4 0 4 C0 2.68 0 1.36 0 0 Z " fill="#BDD6F8" transform="translate(238,373)"/>
<path d="M0 0 C1.32 0 2.64 0 4 0 C4 3.63 4 7.26 4 11 C2.68 11 1.36 11 0 11 C0 7.37 0 3.74 0 0 Z " fill="#BDD4F8" transform="translate(413,113)"/>
<path d="M0 0 C0.66 0.33 1.32 0.66 2 1 C2 1.99 2 2.98 2 4 C-4.5 8 -4.5 8 -9 8 C-7.94660446 4.72276944 -6.36236741 3.39539906 -3.5 1.6875 C-2.345 1.130625 -1.19 0.57375 0 0 Z " fill="#BDD3F7" transform="translate(149,377)"/>
<path d="M0 0 C0.99 0.33 1.98 0.66 3 1 C1.47291037 4.43595166 -0.59927045 7.11912454 -3 10 C-4.32 9.67 -5.64 9.34 -7 9 C-5.44499019 5.18315774 -2.96404505 2.80804268 0 0 Z " fill="#BAD3F8" transform="translate(428,67)"/>
<path d="M0 0 C1.32 0.33 2.64 0.66 4 1 C4.33 4.3 4.66 7.6 5 11 C4.01 11 3.02 11 2 11 C0.19769832 7.17010894 -0.19622241 4.21878192 0 0 Z " fill="#BFD5F9" transform="translate(125,594)"/>
<path d="M0 0 C3.3 0.99 6.6 1.98 10 3 C10 3.99 10 4.98 10 6 C5.32538149 6.32613618 2.83325617 5.70582788 -1 3 C-0.67 2.01 -0.34 1.02 0 0 Z " fill="#BED7FB" transform="translate(153,631)"/>
<path d="M0 0 C2.90802461 2.21928194 4.95312762 3.92969143 7 7 C7 7.99 7 8.98 7 10 C3.90001254 9.66785849 2.9454988 8.9454988 0.6875 6.6875 C-1 4 -1 4 -0.75 1.6875 C-0.5025 1.130625 -0.255 0.57375 0 0 Z " fill="#BED5F9" transform="translate(135,616)"/>
<path d="M0 0 C3.96 0 7.92 0 12 0 C12 0.99 12 1.98 12 3 C8.04 3 4.08 3 0 3 C0 2.01 0 1.02 0 0 Z " fill="#B6D1F8" transform="translate(541,57)"/>
<path d="M0 0 C3.96 0 7.92 0 12 0 C12 0.99 12 1.98 12 3 C8.04 3 4.08 3 0 3 C0 2.01 0 1.02 0 0 Z " fill="#B7D1F8" transform="translate(516,57)"/>
<path d="M0 0 C3.96 0 7.92 0 12 0 C12 0.99 12 1.98 12 3 C8.04 3 4.08 3 0 3 C0 2.01 0 1.02 0 0 Z " fill="#B7D2F9" transform="translate(491,57)"/>
<path d="M0 0 C3.96 0 7.92 0 12 0 C12 0.99 12 1.98 12 3 C8.04 3 4.08 3 0 3 C0 2.01 0 1.02 0 0 Z " fill="#BAD3FA" transform="translate(467,57)"/>
<path d="M0 0 C-1.69179328 2.04219706 -2.63727666 2.91793306 -5.26171875 3.51171875 C-6.06222656 3.56972656 -6.86273437 3.62773437 -7.6875 3.6875 C-8.49574219 3.75324219 -9.30398438 3.81898438 -10.13671875 3.88671875 C-11.05904297 3.94279297 -11.05904297 3.94279297 -12 4 C-10.39473164 1.38087794 -9.52483536 0.17494512 -6.5625 -0.8125 C-4.07118167 -0.99479158 -2.35377039 -0.78459013 0 0 Z " fill="#B5A6E4" transform="translate(718,374)"/>
<path d="M0 0 C0.98052284 2.64741166 1.05565835 3.82446211 0.1875 6.5625 C-1 9 -1 9 -3 12 C-3.66 12 -4.32 12 -5 12 C-4.54738642 10.56068883 -4.08767021 9.12361001 -3.625 7.6875 C-3.24214844 6.48673828 -3.24214844 6.48673828 -2.8515625 5.26171875 C-2 3 -2 3 0 0 Z " fill="#D4DCE8" transform="translate(310,315)"/>
<path d="M0 0 C0.66 0.33 1.32 0.66 2 1 C1.67 1.66 1.34 2.32 1 3 C2.32 3.33 3.64 3.66 5 4 C5 4.66 5 5.32 5 6 C3.02 6 1.04 6 -1 6 C-1.33 6.99 -1.66 7.98 -2 9 C-2 6.69 -2 4.38 -2 2 C-1.34 2 -0.68 2 0 2 C0 1.34 0 0.68 0 0 Z " fill="#9A8DD8" transform="translate(854,380)"/>
</svg>
